<?xml version="1.0" encoding="UTF-8"?>
<svg id="illos" xmlns="http://www.w3.org/2000/svg" xmlns:xlink="http://www.w3.org/1999/xlink" viewBox="0 0 462 260">
  <defs>
    <style>
      .cls-1 {
        filter: url(#drop-shadow-1);
      }

      .cls-2 {
        fill: #fcc934;
      }

      .cls-2, .cls-3, .cls-4, .cls-5, .cls-6, .cls-7, .cls-8, .cls-9, .cls-10 {
        fill-rule: evenodd;
      }

      .cls-11 {
        stroke: #e8eaed;
      }

      .cls-11, .cls-12, .cls-13, .cls-14, .cls-15, .cls-16, .cls-17, .cls-18 {
        stroke-miterlimit: 10;
      }

      .cls-11, .cls-16, .cls-17, .cls-18 {
        fill: none;
      }

      .cls-3, .cls-12, .cls-19 {
        fill: #fff;
      }

      .cls-20 {
        fill: url(#linear-gradient-4);
      }

      .cls-21 {
        fill: url(#linear-gradient-3);
      }

      .cls-22 {
        fill: url(#linear-gradient-2);
      }

      .cls-4 {
        fill: #fde293;
      }

      .cls-23 {
        fill: #4285f4;
      }

      .cls-5 {
        fill: #fbbc04;
      }

      .cls-12 {
        stroke-width: 1.08px;
      }

      .cls-12, .cls-13, .cls-16 {
        stroke: #dadce0;
      }

      .cls-24 {
        fill: url(#linear-gradient);
      }

      .cls-6 {
        fill: #34a853;
      }

      .cls-25 {
        fill: #174ea6;
        opacity: .41;
      }

      .cls-26 {
        fill: #d2e3fc;
      }

      .cls-13, .cls-27, .cls-15, .cls-10 {
        fill: #f8f9fa;
      }

      .cls-28 {
        fill: #8ab4f8;
      }

      .cls-29 {
        fill: #feefc3;
      }

      .cls-14 {
        fill: #fdd663;
        stroke: #fef7e0;
        stroke-width: .88px;
      }

      .cls-30 {
        fill: #f8f9fa;
      }

      .cls-15, .cls-18 {
        stroke: #e8f0fe;
      }

      .cls-7 {
        fill: #a8dab5;
      }

      .cls-16 {
        stroke-width: .96px;
      }

      .cls-8 {
        fill: #ea8600;
      }

      .cls-17 {
        stroke: #8ab4f8;
        stroke-width: .3px;
      }

      .cls-9 {
        fill: #5bb974;
      }

      .cls-31 {
        fill: #dadce0;
      }

      .cls-32 {
        clip-path: url(#clippath);
      }
    </style>
    <linearGradient id="linear-gradient" x1="-4.64" y1="63.19" x2="54.89" y2="63.19" gradientUnits="userSpaceOnUse">
      <stop offset="0" stop-color="#ceead6"/>
      <stop offset="1" stop-color="#0f9d58"/>
    </linearGradient>
    <linearGradient id="linear-gradient-2" x1="395.74" y1="101.71" x2="417.34" y2="101.71" gradientUnits="userSpaceOnUse">
      <stop offset=".21" stop-color="#217bfe"/>
      <stop offset=".66" stop-color="#ac87eb"/>
    </linearGradient>
    <linearGradient id="linear-gradient-3" x1="25.1" y1="156.83" x2="100.37" y2="156.83" gradientUnits="userSpaceOnUse">
      <stop offset="0" stop-color="#e8f0fe"/>
      <stop offset=".31" stop-color="#b7d0fb"/>
      <stop offset="1" stop-color="#4285f4"/>
    </linearGradient>
    <clipPath id="clippath">
      <path class="cls-15" d="M77.99,155.78h-.16c-3.12-5.29-8.83-8.83-15.35-8.83-7.48,0-13.89,4.66-16.56,11.29-3.62.19-6.53,3.22-6.53,6.88h47.95c0-5.12-4.22-9.34-9.34-9.34h0Z"/>
    </clipPath>
    <filter id="drop-shadow-1" x="109.78" y="20.68" width="79.68" height="107.04" filterUnits="userSpaceOnUse">
      <feOffset dx="0" dy="2"/>
      <feGaussianBlur result="blur" stdDeviation="4"/>
      <feFlood flood-color="#000" flood-opacity=".1"/>
      <feComposite in2="blur" operator="in"/>
      <feComposite in="SourceGraphic"/>
    </filter>
    <linearGradient id="linear-gradient-4" x1="333.16" y1="206.91" x2="441.27" y2="206.91" gradientUnits="userSpaceOnUse">
      <stop offset="0" stop-color="#fef7e0"/>
      <stop offset=".31" stop-color="#fcc934"/>
      <stop offset="1" stop-color="#f9ab00"/>
    </linearGradient>
  </defs>
  <rect class="cls-30" x="0" width="462" height="260"/>
  <g>
    <rect class="cls-11" x="-10.92" y="85.62" width="44.88" height="44.88"/>
    <rect class="cls-11" x="33.96" y="40.74" width="44.88" height="44.88"/>
    <rect class="cls-11" x="-10.92" y="40.74" width="44.88" height="44.88"/>
    <rect class="cls-11" x="78.84" y="-4.15" width="44.88" height="44.88"/>
    <rect class="cls-11" x="33.96" y="-4.15" width="44.88" height="44.88"/>
    <rect class="cls-11" x="-10.92" y="-4.15" width="44.88" height="44.88"/>
  </g>
  <path class="cls-24" d="M53.84,80.25c-3.1,1.62-6.55,1.88-9.89.88-.92-.28-1.81-.64-2.64-1.14-.17-.1-.34-.21-.51-.33-.04-.03-.08-.06-.13-.09-.09-.06-.17-.12-.25-.18-.28-.2.19.16-.04-.03-2.61-2.1-3.82-5.7-4.59-8.89-1.01-4.19-1.28-8.58-.94-12.87.28-3.55.98-7.42,2.99-10.44.66-1,1.7-1.97,2.61-2.3.72-.26.98-.28,1.7-.26.18,0,.32.05.05,0,.11.02.22.04.33.07s.21.07.32.1c-.29-.1-.07-.04.07.05.09.06.19.11.28.17.26.16-.03-.04.03.02.19.16.36.34.52.53-.24-.28.16.24.23.37.1.17.34.66.32.62.39.92.64,2.37.71,3.39.51,7.17-2.02,14.86-5.57,21-3.8,6.58-10.07,12.49-18.2,10.35-3.16-.83-5.17-2.43-6.66-5.24-1.8-3.4-2.58-7.39-2.9-11.2-.35-4.15-.21-8.43.82-12.48.73-2.87,2.01-6.18,4.57-7.41.3-.14,1.04-.34,1.44-.34.14,0,.72.03.53,0s.36.09.5.13c.33.09-.14-.13.26.12.08.05.17.11.25.16.21.13-.22-.21.04.03.15.14.29.29.43.44.21.23-.04-.06.02.02.07.11.15.21.21.32.12.2.22.4.33.61.06.13.13.32.03.07.05.14.11.27.15.41.18.54.31,1.09.41,1.65.09.47.05.23.09.61.04.34.06.68.08,1.02.04.73.04,1.46.02,2.19-.24,6.63-2.6,13.59-6.11,19.31-3.27,5.33-8.36,10.39-14.85,10.02-1.5-.09-3.09-.5-4.54-1.13-1.84-.8-3.45,1.91-1.59,2.72,3.6,1.58,7.54,2.11,11.34.89,3.56-1.14,6.6-3.52,9.02-6.32,5.13-5.95,8.35-13.83,9.49-21.56.66-4.46,1.32-13.51-4.75-14.74-3.49-.71-6.55,1.64-8.25,4.49-2.22,3.71-2.95,8.29-3.18,12.54-.26,4.69.17,9.54,1.47,14.07,1.06,3.69,2.78,7.47,6.06,9.68,3.74,2.52,8.93,3.22,13.23,1.9,3.88-1.19,7.15-3.87,9.68-6.99,5.4-6.66,8.73-15.52,9.27-24.06.19-2.98.08-6.5-1.59-9.1s-4.89-3.27-7.71-1.97c-3.44,1.59-5.18,5.55-6.11,9-1.22,4.54-1.43,9.4-.99,14.06s1.35,9.14,3.65,13.05c2,3.4,5.19,5.47,9.05,6.25s7.53.26,10.97-1.54c1.8-.94.21-3.66-1.59-2.72h0Z"/>
  <g>
    <rect class="cls-11" x="384.1" y="215.14" width="44.88" height="44.88"/>
    <rect class="cls-11" x="384.1" y="80.48" width="44.88" height="44.88"/>
    <rect class="cls-11" x="428.98" y="80.48" width="44.88" height="44.88"/>
    <rect class="cls-11" x="428.98" y="125.36" width="44.88" height="44.88"/>
    <rect class="cls-11" x="428.98" y="170.25" width="44.88" height="44.88"/>
    <rect class="cls-11" x="428.98" y="215.14" width="44.88" height="44.88"/>
  </g>
  <path class="cls-22" d="M406.54,112.51c0-1.5-.28-2.9-.85-4.21-.57-1.31-1.34-2.46-2.31-3.43s-2.12-1.74-3.43-2.31c-1.31-.57-2.71-.85-4.21-.85,1.5,0,2.9-.28,4.21-.85s2.46-1.34,3.43-2.31c.97-.97,1.74-2.12,2.31-3.43.57-1.31.85-2.71.85-4.21,0,1.5.28,2.9.85,4.21.57,1.31,1.34,2.46,2.31,3.43s2.12,1.74,3.43,2.31,2.71.85,4.21.85c-1.5,0-2.9.28-4.21.85s-2.46,1.34-3.43,2.31-1.74,2.12-2.31,3.43c-.57,1.31-.85,2.71-.85,4.21Z"/>
  <g>
    <rect class="cls-21" x="25.1" y="119.19" width="75.27" height="75.27" rx="7.58" ry="7.58"/>
    <rect class="cls-26" x="29.92" y="124.01" width="65.64" height="65.64" rx="6.61" ry="6.61"/>
    <g>
      <path class="cls-27" d="M77.99,155.78h-.16c-3.12-5.29-8.83-8.83-15.35-8.83-7.48,0-13.89,4.66-16.56,11.29-3.62.19-6.53,3.22-6.53,6.88h47.95c0-5.12-4.22-9.34-9.34-9.34h0Z"/>
      <g class="cls-32">
        <path class="cls-19" d="M73.99,156.78h-.16c-3.12-5.29-8.83-8.83-15.35-8.83-7.48,0-13.89,4.66-16.56,11.29-3.62.19-6.53,3.22-6.53,6.88h47.95c0-5.12-4.22-9.34-9.34-9.34h0Z"/>
      </g>
      <path class="cls-18" d="M77.99,155.78h-.16c-3.12-5.29-8.83-8.83-15.35-8.83-7.48,0-13.89,4.66-16.56,11.29-3.62.19-6.53,3.22-6.53,6.88h47.95c0-5.12-4.22-9.34-9.34-9.34h0Z"/>
    </g>
  </g>
  <rect class="cls-13" x="353.43" y="22.57" width="88.5" height="25.16" rx="12.58" ry="12.58"/>
  <g>
    <line class="cls-12" x1="368.72" y1="35.15" x2="382" y2="35.15"/>
    <rect class="cls-16" x="393.93" y="29.46" width="11.38" height="11.38"/>
    <g>
      <line class="cls-12" x1="417.25" y1="39.85" x2="426.63" y2="30.46"/>
      <line class="cls-12" x1="426.63" y1="39.85" x2="417.25" y2="30.46"/>
    </g>
  </g>
  <g>
    <path class="cls-31" d="M317.94,186.64c4.46,2.58,4.48,6.74.05,9.32l-75.86,47.28c-4.42,2.57-11.63,2.58-16.09,0l-94.75-55.68c-4.45-2.57-4.47-6.75-.05-9.32l75.86-47.29c4.43-2.58,11.64-2.57,16.09,0l94.75,55.68Z"/>
    <g>
      <g>
        <path class="cls-26" d="M330.65,88.59l-102.31-58.77c-2.33-1.35-5.31-.2-6.13,2.36l-26.9,83.66c-.96,2.98.08,6.19,2.49,8.07l-.52-.22c-1.33-.79-2.99-.8-4.33-.03l-64.17,37.53c-1.44.83-2.21,1.88-2.29,2.89-.01,0-.01,4.89-.01,4.89,0,.89.52,1.75,1.63,2.39l96.54,55.74c2.4,1.39,6.6,1.21,9.38-.39l63.38-36.75c1.21-.7,1.96-2,1.97-3.4v-5.29c1.35.41,3.29.6,3.29.6,2.09-.09,4.04.21,4.72-1.97l26.35-83.32c.97-3.06-.32-6.37-3.1-7.98Z"/>
        <path class="cls-19" d="M322.32,90.42l-92.95-53.74c-1.23-.71-2.8-.11-3.25,1.24l-25.28,77.14c-.46,1.42.13,2.97,1.42,3.72l93.65,54.44c.97.56,2.21.09,2.55-.98l25.21-78.33c.43-1.33-.13-2.79-1.34-3.49Z"/>
      </g>
      <path class="cls-28" d="M219.2,136.3l-2.61,1.56c-.93.54-1.03,1.35-.23,1.81l45.54,26.29c.8.46,2.21.41,3.13-.13l2.61-1.56-48.45-27.97Z"/>
      <path class="cls-28" d="M298.89,184.19l-64.99,37.67c-2.78,1.61-6.99,1.78-9.4.39l-96.39-55.63c-1.17-.67-1.69-1.59-1.61-2.54-.01,0-.01,4.89-.01,4.89,0,.89.52,1.75,1.63,2.39l96.54,55.74c2.4,1.39,6.6,1.21,9.38-.39l63.38-36.75c1.21-.7,1.96-2,1.97-3.4v-3.16c-.02.31-.18.61-.49.79Z"/>
      <path class="cls-19" d="M195.03,198.29l-27.1-15.65c-.8-.46-.7-1.27.23-1.81l15.15-8.75c.93-.54,2.33-.59,3.13-.13l27.1,15.65c.8.46.7,1.27-.22,1.81l-15.15,8.75c-.93.54-2.33.59-3.13.13Z"/>
      <path class="cls-28" d="M247.16,201.5l-84.79-48.95c-.8-.46-.7-1.27.23-1.81l29.98-17.31c.93-.54,2.33-.59,3.13-.13l84.79,48.95c.8.46.7,1.27-.23,1.81l-29.98,17.31c-.93.54-2.33.59-3.13.13Z"/>
      <g>
        <polygon class="cls-23" points="233.29 158.32 194.57 135.96 191.44 137.77 230.17 160.13 233.29 158.32"/>
        <polygon class="cls-23" points="188.66 146.59 182.41 142.98 179.29 144.79 185.54 148.4 188.66 146.59"/>
        <polygon class="cls-23" points="190.23 151.1 261.08 192.01 264.2 190.2 193.35 149.3 190.23 151.1"/>
        <polygon class="cls-23" points="247.31 187.47 176.33 146.49 173.21 148.3 244.19 189.28 247.31 187.47"/>
        <polygon class="cls-23" points="249.01 192.06 255 195.52 258.12 193.71 252.13 190.25 249.01 192.06"/>
        <polygon class="cls-23" points="170.26 150 167.13 151.81 172.86 155.11 175.99 153.31 170.26 150"/>
        <polygon class="cls-23" points="175.48 156.63 181.21 159.94 184.34 158.13 178.61 154.82 175.48 156.63"/>
        <polygon class="cls-23" points="184.66 161.93 230.09 188.16 233.22 186.35 187.78 160.12 184.66 161.93"/>
        <polygon class="cls-23" points="254.82 170.75 237.63 160.83 234.51 162.63 251.7 172.56 254.82 170.75"/>
        <polygon class="cls-23" points="259.17 173.26 256.04 175.07 273.23 184.99 276.36 183.19 259.17 173.26"/>
        <polygon class="cls-23" points="234.16 190.51 248.92 199.03 252.05 197.22 237.29 188.7 234.16 190.51"/>
        <polygon class="cls-23" points="239.21 172.37 267.15 188.5 270.28 186.7 242.33 170.56 239.21 172.37"/>
        <polygon class="cls-23" points="237.97 168.04 188.58 139.52 185.45 141.33 234.84 169.85 237.97 168.04"/>
      </g>
      <path class="cls-28" d="M330.65,88.08l-3.46-1.99c2.76,1.6,3.06,4.7,2.1,7.74l-26.58,84.2c-.76,2.37-3.24,4.21-5.48,3.61,0,0,2.89,1.25,5.44,1.35,2.09.08,4.04-1.44,4.72-3.62l26.35-83.32c.97-3.06-.32-6.37-3.1-7.98Z"/>
      <line class="cls-17" x1="297.23" y1="181.65" x2="197.29" y2="123.69"/>
    </g>
    <g class="cls-1">
      <path class="cls-10" d="M128.84,113.36l-5.78-3.33c-1.01-.83-1.06-1.34-1.19-2.6l.02-33.98,5.78,3.34-.02,33.98c.12,1.26.18,1.77,1.19,2.6Z"/>
      <path class="cls-7" d="M127.67,76.78l-5.78-3.34v-11.01c.12-2.78,1.69-5.47,4.03-6.96l41.49-23.93c1.15-.53,1.63-.73,2.84-.27l5.77,3.33c-1.2-.45-1.68-.25-2.84.28l-41.49,23.93c-2.34,1.49-3.9,4.18-4.02,6.96v11.01Z"/>
      <path class="cls-9" d="M131.69,58.81l41.49-23.93c2.22-1.28,4.02-.24,4.02,2.32l-.02,11-49.52,28.58v-11.01c0-2.55,1.81-5.68,4.02-6.96Z"/>
      <path class="cls-3" d="M177.19,48.2v33.99c0,2.56-1.81,5.68-4.02,6.96-15.22,8.78-26.28,15.15-41.49,23.93-2.22,1.28-4.02.24-4.02-2.32l.02-33.98,49.52-28.58Z"/>
      <path class="cls-3" d="M158.09,49.23c1.08-.62,1.95-.12,1.95,1.12s-.87,2.74-1.95,3.36c-1.06.61-1.93.12-1.93-1.12s.87-2.75,1.93-3.36Z"/>
      <path class="cls-3" d="M164.79,45.37c1.06-.61,1.93-.11,1.93,1.12s-.87,2.75-1.93,3.36c-1.08.62-1.95.12-1.95-1.12s.87-2.74,1.95-3.36Z"/>
      <path class="cls-3" d="M171.47,41.51c1.06-.62,1.93-.12,1.93,1.12s-.87,2.74-1.93,3.36c-1.08.62-1.95.12-1.95-1.12s.87-2.74,1.95-3.36Z"/>
      <polygon class="cls-6" points="143.19 85.39 143.19 83.6 151.45 78.82 151.45 80.62 143.19 85.39"/>
      <polygon class="cls-6" points="133.96 88.69 133.96 85.91 139.93 79.73 133.96 80.49 133.96 77.73 142.52 77.07 142.52 79.43 133.96 88.69"/>
    </g>
    <ellipse class="cls-25" cx="221" cy="166.27" rx="11.29" ry="44.88" transform="translate(-29.91 282.6) rotate(-61.83)"/>
    <g>
      <path class="cls-2" d="M253.46,174.38l-12.49,7.21c.59-.41.59-1.11.5-1.76l-5.93-33.83c-.22-1.42-.2-2.96,1.12-3.83l12.49-7.2.2-.11c-1.52.9-1.56,2.33-1.32,3.94l5.91,33.82c.09.66.11,1.36-.49,1.77Z"/>
      <path class="cls-4" d="M212.21,84.72l-12.5,7.21c-.87.4-1.6.22-2.48-.15l-26.85-12.58c-.46-.19-.81-.27-1.25-.02l12.5-7.21c.42-.24.79-.16,1.22.03l26.88,12.58c.86.37,1.58.55,2.48.15Z"/>
      <path class="cls-4" d="M241.63,102.97l26.88,18.42c.62.44.99.91,1.32,1.58.4.82.81,2.23-.07,2.9l-12.5,7.2c.93-.69.44-2.23,0-3.06-.35-.6-.67-1-1.25-1.4l-26.87-18.42c-1.73-1.26-2.79-2.87-3.45-4.9l-10.72-34.8c-.37-1.04-1.78-3.27-3.18-2.52l12.49-7.21c1.38-.73,2.81,1.46,3.16,2.52l10.72,34.81c.68,2.03,1.73,3.64,3.47,4.9Z"/>
      <path class="cls-5" d="M229.16,110.18l26.85,18.42c1.71,1.17,2.4,4.06,1.1,4.55l-20.24,8.93c-1.17.52-1.65,1.97-1.32,3.93l5.93,33.83c.35,2.13-1.4,2.61-2.9.75l-23.23-29.28c-1.34-1.69-2.92-2.61-4.26-2.47l-23.23,2.48c-1.47.16-3.25-2.37-2.88-4.08l5.88-27.03c.33-1.56-.15-3.58-1.34-5.45l-20.25-32.29c-1.29-2.05-.6-4.08,1.1-3.28l26.85,12.58c1.58.74,2.81.37,3.47-.9l10.69-22.45c.68-1.42,2.9-.14,3.56,2.05l10.74,34.81c.57,1.83,2,4.06,3.47,4.9Z"/>
      <path class="cls-2" d="M228.04,109.24c-1.15-1.2-1.83-2.39-2.35-3.96l-10.74-34.81c-.33-1.05-1.78-3.26-3.16-2.52l12.49-7.21c1.32-.71,2.73,1.32,3.1,2.32l10.78,35c.53,1.59,1.21,2.75,2.35,3.96l-12.47,7.21Z"/>
      <path class="cls-8" d="M207.59,118.64h0c-1.21-2.05-1.92-4.37-1.92-6.46s.72-3.56,1.92-4.24c1.17-.68,2.82-.59,4.62.46,1.81,1.05,3.47,2.84,4.64,4.89,1.17,2.05,1.92,4.37,1.92,6.46s-.75,3.56-1.92,4.24c-2.57,1.48-6.7-.92-9.26-5.35Z"/>
      <path class="cls-8" d="M203.62,123.92c4.75-2.73,12.43,1.71,17.18,9.91,2,3.48,3.31,7.38,3.52,10.99l-24.23-13.98c.21-3.38,1.52-5.76,3.52-6.92Z"/>
    </g>
  </g>
  <g>
    <rect class="cls-20" x="333.16" y="173.74" width="108.11" height="66.35" rx="8.53" ry="8.53"/>
    <rect class="cls-29" x="336.78" y="177.18" width="100.88" height="59.46" rx="5.67" ry="5.67"/>
    <rect class="cls-14" x="345.05" y="184.49" width="9.71" height="44.84" rx="4.86" ry="4.86"/>
    <rect class="cls-14" x="359.97" y="194.37" width="9.71" height="34.97" rx="4.86" ry="4.86"/>
    <rect class="cls-14" x="374.9" y="204.59" width="9.71" height="24.75" rx="4.86" ry="4.86"/>
    <rect class="cls-14" x="389.82" y="214.96" width="9.71" height="14.38" rx="4.86" ry="4.86"/>
    <rect class="cls-14" x="404.75" y="195.71" width="9.71" height="33.62" rx="4.86" ry="4.86"/>
    <rect class="cls-14" x="419.67" y="184.49" width="9.71" height="44.84" rx="4.86" ry="4.86"/>
  </g>
</svg>